{"glyphs":{":":{"x_min":0,"x_max":602,"ha":602,"o":"m 219 519 l 382 519 l 382 341 l 219 341 z m 219 179 l 382 179 l 382 0 l 219 0 z"},"$":{"x_min":0,"x_max":602,"ha":602,"o":"m 339 258 l 339 110 q 370 115 387 134 q 404 153 404 183 q 404 213 387 233 q 370 252 339 258 z m 270 399 l 270 537 q 240 533 224 517 q 209 500 209 472 q 209 444 224 426 q 240 407 270 399 z m 339 -147 l 270 -147 l 270 0 q 227 1 181 13 q 134 24 84 45 l 84 173 q 134 143 181 127 q 229 111 270 110 l 270 271 q 174 290 127 337 q 80 383 80 460 q 80 542 130 590 q 180 638 270 644 l 270 760 l 339 760 l 339 644 q 374 642 411 635 q 449 628 488 616 l 488 491 q 458 511 420 522 q 383 534 339 537 l 339 387 q 435 372 484 322 q 533 271 533 187 q 533 107 480 56 q 427 4 339 0 z"},"?":{"x_min":0,"x_max":602,"ha":602,"o":"m 215 138 l 345 138 l 345 0 l 215 0 z m 345 196 l 215 196 l 215 271 q 215 319 230 354 q 245 388 284 426 l 328 469 q 359 499 370 519 q 381 538 381 559 q 381 592 358 608 q 336 625 291 625 q 250 625 205 608 q 161 590 114 556 l 114 687 q 162 714 211 728 q 260 742 309 742 q 408 742 464 696 q 520 650 520 570 q 520 533 503 501 q 487 469 441 424 l 398 382 q 365 350 355 329 q 346 309 346 279 q 346 274 346 269 q 346 263 345 256 z"},"<":{"x_min":0,"x_max":602,"ha":602,"o":"m 559 452 l 171 313 l 559 175 l 559 53 l 43 256 l 43 371 l 559 574 z"},"'":{"x_min":0,"x_max":602,"ha":602,"o":"m 363 729 l 363 458 l 238 458 l 238 729 z"},"=":{"x_min":0,"x_max":602,"ha":602,"o":"m 43 260 l 559 260 l 559 144 l 43 144 z m 43 482 l 559 482 l 559 367 l 43 367 z"},"a":{"x_min":0,"x_max":602,"ha":602,"o":"m 342 257 q 262 257 230 236 q 198 216 198 166 q 198 129 220 107 q 242 85 280 85 q 336 85 368 128 q 399 170 399 247 l 399 257 z m 541 312 l 541 0 l 399 0 l 399 61 q 373 25 333 5 q 292 -14 243 -14 q 150 -14 98 35 q 46 84 46 173 q 46 269 108 314 q 170 360 300 360 l 399 360 l 399 384 q 399 418 374 436 q 349 454 300 454 q 249 454 200 441 q 152 428 100 400 l 100 522 q 147 542 196 551 q 245 560 300 560 q 433 560 487 506 q 541 452 541 312 z"},"L":{"x_min":0,"x_max":602,"ha":602,"o":"m 110 0 l 110 729 l 254 729 l 254 127 l 562 127 l 562 0 z"},"3":{"x_min":0,"x_max":602,"ha":602,"o":"m 268 326 l 191 326 l 191 453 l 268 453 q 322 453 351 474 q 381 496 381 534 q 381 575 351 597 q 322 620 268 620 q 227 620 180 610 q 133 600 83 580 l 83 711 q 133 726 182 734 q 231 742 276 742 q 391 742 456 692 q 520 642 520 553 q 520 488 483 447 q 446 406 377 393 q 455 379 496 331 q 537 282 537 203 q 537 97 469 42 q 401 -14 272 -14 q 217 -14 163 -5 q 110 4 61 22 l 61 156 q 107 133 160 121 q 213 109 272 109 q 331 109 365 136 q 399 163 399 209 q 399 265 365 296 q 331 326 268 326 z"},";":{"x_min":0,"x_max":602,"ha":602,"o":"m 219 179 l 382 179 l 382 47 l 286 -140 l 181 -140 l 219 47 z m 219 519 l 382 519 l 382 341 l 219 341 z"},"J":{"x_min":0,"x_max":602,"ha":602,"o":"m 53 36 l 53 203 q 95 160 143 138 q 190 115 239 115 q 295 115 322 144 q 348 172 348 234 l 348 602 l 172 602 l 172 729 l 492 729 l 492 234 q 492 101 436 43 q 380 -14 252 -14 q 206 -14 155 -1 q 104 11 53 36 z"},"V":{"x_min":0,"x_max":602,"ha":602,"o":"m 301 120 l 429 729 l 574 729 l 401 0 l 201 0 l 28 729 l 173 729 z"},"\"":{"x_min":0,"x_max":602,"ha":602,"o":"m 488 729 l 488 458 l 363 458 l 363 729 z m 238 729 l 238 458 l 113 458 l 113 729 z"},"7":{"x_min":0,"x_max":602,"ha":602,"o":"m 66 729 l 527 729 l 527 627 l 280 0 l 133 0 l 370 602 l 66 602 z"},"S":{"x_min":0,"x_max":602,"ha":602,"o":"m 249 320 q 140 361 102 407 q 63 453 63 530 q 63 629 126 686 q 190 742 301 742 q 351 742 401 731 q 452 719 501 697 l 501 556 q 455 589 407 606 q 359 623 312 623 q 260 623 232 602 q 204 581 204 542 q 204 512 224 492 q 245 472 309 448 l 371 425 q 459 393 500 339 q 542 286 542 205 q 542 95 477 40 q 412 -14 280 -14 q 226 -14 171 -1 q 117 12 66 37 l 66 186 q 124 145 177 125 q 231 105 284 105 q 337 105 367 129 q 396 153 396 197 q 396 229 376 254 q 357 279 320 293 z"},"}":{"x_min":0,"x_max":602,"ha":602,"o":"m 88 -70 l 147 -70 q 198 -70 215 -49 q 233 -28 233 42 l 233 142 q 233 222 257 255 q 281 289 342 299 q 280 308 257 341 q 233 374 233 454 l 233 556 q 233 625 216 646 q 198 667 147 667 l 88 667 l 88 760 l 161 760 q 282 760 323 724 q 364 688 364 580 l 364 475 q 364 401 390 373 q 417 345 486 345 l 516 345 l 516 252 l 486 252 q 417 252 390 224 q 364 195 364 122 l 364 17 q 364 -91 323 -127 q 282 -163 161 -163 l 88 -163 z"},"Z":{"x_min":0,"x_max":602,"ha":602,"o":"m 67 729 l 560 729 l 560 610 l 222 127 l 567 127 l 567 0 l 56 0 l 56 119 l 384 602 l 67 602 z"},"x":{"x_min":0,"x_max":602,"ha":602,"o":"m 559 547 l 375 285 l 575 0 l 408 0 l 301 184 l 194 0 l 27 0 l 229 285 l 43 547 l 210 547 l 301 384 l 392 547 z"},")":{"x_min":0,"x_max":602,"ha":602,"o":"m 151 759 l 262 759 q 339 647 377 537 q 415 427 415 314 q 415 200 377 91 q 340 -19 262 -132 l 151 -132 q 215 -15 247 95 q 278 206 278 314 q 278 423 247 533 q 215 642 151 759 z"},"&":{"x_min":0,"x_max":602,"ha":602,"o":"m 425 35 q 388 11 347 -2 q 306 -14 263 -14 q 154 -14 86 50 q 18 114 18 216 q 18 287 52 345 q 87 403 155 446 q 130 484 119 516 q 107 549 107 578 q 107 657 160 700 q 213 742 314 742 q 350 742 384 737 q 418 731 451 721 l 451 596 q 420 614 388 623 q 356 632 324 632 q 285 632 265 618 q 245 604 245 578 q 245 561 260 530 q 275 499 308 449 l 461 215 q 471 233 477 257 q 482 281 482 309 q 482 324 481 338 q 480 352 478 364 l 593 364 l 593 339 q 593 268 576 215 q 560 162 524 120 l 603 0 l 448 0 z m 215 357 q 183 336 166 307 q 150 278 150 242 q 150 183 188 142 q 227 101 282 101 q 296 101 310 104 q 325 107 338 113 q 339 114 342 115 q 356 122 365 128 z"},"_":{"x_min":0,"x_max":602,"ha":602,"o":"m 602 -143 l 602 -236 l 0 -236 l 0 -143 z"},"v":{"x_min":0,"x_max":602,"ha":602,"o":"m 563 547 l 389 0 l 213 0 l 39 547 l 184 547 l 301 120 l 418 547 z"},"O":{"x_min":0,"x_max":602,"ha":602,"o":"m 301 613 q 246 613 220 554 q 195 495 195 364 q 195 233 220 174 q 246 115 301 115 q 356 115 382 174 q 407 233 407 364 q 407 495 382 554 q 356 613 301 613 z m 45 364 q 45 551 110 646 q 174 742 301 742 q 428 742 492 646 q 557 551 557 364 q 557 177 492 82 q 428 -14 301 -14 q 174 -14 110 82 q 45 177 45 364 z"},"(":{"x_min":0,"x_max":602,"ha":602,"o":"m 451 759 q 387 642 355 533 q 324 423 324 314 q 324 206 355 95 q 387 -15 451 -132 l 340 -132 q 262 -19 225 91 q 187 200 187 314 q 187 427 225 537 q 263 647 340 759 z"},"C":{"x_min":0,"x_max":602,"ha":602,"o":"m 528 21 q 494 3 456 -5 q 418 -14 377 -14 q 229 -14 152 83 q 74 180 74 364 q 74 548 152 645 q 229 742 377 742 q 418 742 457 733 q 495 725 528 707 l 528 547 q 491 581 456 597 q 421 613 384 613 q 305 613 264 550 q 224 487 224 364 q 224 241 264 178 q 305 115 384 115 q 421 115 456 131 q 491 147 528 181 z"},"W":{"x_min":0,"x_max":602,"ha":602,"o":"m 0 729 l 126 729 l 178 194 l 241 540 l 361 540 l 434 194 l 475 729 l 602 729 l 518 0 l 384 0 l 301 383 l 223 0 l 90 0 z"},"A":{"x_min":0,"x_max":602,"ha":602,"o":"m 301 597 l 233 299 l 369 299 z m 213 729 l 389 729 l 586 0 l 442 0 l 397 180 l 204 180 l 160 0 l 16 0 z"},"f":{"x_min":0,"x_max":602,"ha":602,"o":"m 361 595 l 361 547 l 529 547 l 529 437 l 361 437 l 361 0 l 218 0 l 218 437 l 85 437 l 85 547 l 218 547 l 218 585 q 218 684 259 722 q 300 760 411 760 l 529 760 l 529 650 l 417 650 q 385 650 373 638 q 362 626 361 595 z"},"Q":{"x_min":0,"x_max":602,"ha":602,"o":"m 320 -11 q 313 -13 309 -13 q 304 -14 300 -14 q 174 -14 110 82 q 45 177 45 364 q 45 551 110 646 q 174 742 301 742 q 428 742 492 646 q 557 551 557 364 q 557 235 526 149 q 496 62 437 25 l 528 -64 l 429 -137 z m 301 613 q 246 613 220 554 q 195 495 195 364 q 195 233 220 174 q 246 115 301 115 q 356 115 382 174 q 407 233 407 364 q 407 495 382 554 q 356 613 301 613 z"},"w":{"x_min":0,"x_max":602,"ha":602,"o":"m 0 547 l 119 547 l 184 128 l 243 404 l 359 404 l 417 128 l 483 547 l 602 547 l 503 0 l 367 0 l 301 284 l 235 0 l 99 0 z"},"-":{"x_min":0,"x_max":602,"ha":602,"o":"m 147 359 l 455 359 l 455 217 l 147 217 z"},"E":{"x_min":0,"x_max":602,"ha":602,"o":"m 536 0 l 82 0 l 82 729 l 536 729 l 536 602 l 226 602 l 226 445 l 507 445 l 507 318 l 226 318 l 226 127 l 536 127 z"},"s":{"x_min":0,"x_max":602,"ha":602,"o":"m 484 530 l 484 405 q 444 430 402 443 q 359 456 316 456 q 268 456 244 442 q 219 428 219 401 q 219 362 324 337 l 329 336 l 370 326 q 448 308 485 266 q 521 225 521 155 q 521 70 466 28 q 410 -14 299 -14 q 250 -14 198 -6 q 146 3 93 20 l 93 145 q 140 118 189 104 q 238 90 284 90 q 334 90 360 104 q 386 119 386 147 q 386 174 368 189 q 350 204 281 220 l 241 229 q 159 248 122 287 q 84 327 84 393 q 84 472 141 516 q 198 560 302 560 q 348 560 394 552 q 440 545 484 530 z"},">":{"x_min":0,"x_max":602,"ha":602,"o":"m 43 452 l 43 574 l 559 371 l 559 256 l 43 53 l 43 175 l 431 313 z"},"l":{"x_min":0,"x_max":602,"ha":602,"o":"m 189 228 l 189 650 l 44 650 l 44 760 l 332 760 l 332 228 q 332 164 352 137 q 372 110 420 110 l 534 110 l 534 0 l 380 0 q 278 0 233 53 q 189 105 189 228 z"},"8":{"x_min":0,"x_max":602,"ha":602,"o":"m 301 325 q 252 325 223 295 q 193 264 193 214 q 193 164 223 133 q 252 102 301 102 q 349 102 379 133 q 409 165 409 214 q 409 264 379 295 q 350 325 301 325 z m 194 386 q 139 405 110 446 q 81 487 81 546 q 81 637 140 689 q 199 742 301 742 q 403 742 462 689 q 521 637 521 546 q 521 487 493 447 q 464 406 410 386 q 471 368 505 320 q 539 272 539 205 q 539 100 477 43 q 415 -14 301 -14 q 187 -14 125 43 q 63 100 63 205 q 63 272 98 320 q 132 368 194 386 z m 209 534 q 209 491 234 466 q 258 441 301 441 q 344 441 368 466 q 393 491 393 534 q 393 577 368 601 q 344 626 301 626 q 259 626 234 601 q 209 576 209 534 z"},"\\":{"x_min":0,"x_max":602,"ha":602,"o":"m 163 729 l 547 -93 l 438 -93 l 54 729 z"},"e":{"x_min":0,"x_max":602,"ha":602,"o":"m 538 27 q 488 6 437 -4 q 385 -14 327 -14 q 190 -14 117 59 q 45 133 45 271 q 45 405 115 482 q 185 560 305 560 q 427 560 494 488 q 561 416 561 285 l 561 227 l 190 227 q 191 163 229 131 q 266 99 341 99 q 390 99 438 113 q 486 127 538 158 z m 417 334 q 416 391 388 420 q 360 449 305 449 q 256 449 227 419 q 197 389 192 334 z"},"b":{"x_min":0,"x_max":602,"ha":602,"o":"m 415 272 q 415 351 389 396 q 362 441 316 441 q 270 441 243 396 q 216 351 216 272 q 216 193 243 148 q 270 103 316 103 q 362 103 389 148 q 415 193 415 272 z m 216 469 q 242 515 277 537 q 312 560 356 560 q 453 560 506 486 q 558 412 558 273 q 558 136 506 61 q 455 -14 361 -14 q 312 -14 275 10 q 238 34 216 81 l 216 0 l 73 0 l 73 760 l 216 760 z"},"%":{"x_min":0,"x_max":602,"ha":602,"o":"m 16 543 q 16 608 62 654 q 107 699 172 699 q 237 699 282 654 q 328 608 328 543 q 328 478 282 433 q 237 387 172 387 q 107 387 62 432 q 16 478 16 543 z m 172 610 q 144 610 125 591 q 105 571 105 543 q 105 515 125 495 q 144 476 172 476 q 200 476 219 495 q 239 515 239 543 q 239 571 219 590 q 200 610 172 610 z m 42 274 l 551 478 l 571 431 l 59 227 z m 283 156 q 283 221 328 267 q 374 312 439 312 q 503 312 549 266 q 595 221 595 156 q 595 91 549 46 q 503 0 439 0 q 374 0 328 45 q 283 90 283 156 z m 438 223 q 411 223 391 204 q 372 184 372 156 q 372 127 391 108 q 410 89 438 89 q 466 89 486 108 q 506 128 506 156 q 506 184 486 203 q 466 223 438 223 z"},"m":{"x_min":0,"x_max":602,"ha":602,"o":"m 337 492 q 353 527 378 543 q 403 560 439 560 q 510 560 537 511 q 564 462 564 308 l 564 0 l 447 0 l 447 351 q 447 412 438 433 q 428 453 404 453 q 379 453 370 432 q 360 411 360 351 l 360 0 l 244 0 l 244 351 q 244 411 234 432 q 225 453 200 453 q 176 453 167 433 q 157 412 157 351 l 157 0 l 40 0 l 40 547 l 144 547 l 144 490 q 156 522 183 541 q 210 560 243 560 q 276 560 304 540 q 331 521 337 492 z"},"#":{"x_min":0,"x_max":602,"ha":602,"o":"m 345 718 l 299 535 l 398 535 l 444 718 l 553 718 l 506 535 l 600 535 l 600 430 l 480 430 l 444 287 l 544 287 l 544 182 l 418 182 l 372 0 l 264 0 l 310 182 l 210 182 l 164 0 l 56 0 l 102 182 l 1 182 l 1 287 l 128 287 l 164 430 l 57 430 l 57 535 l 191 535 l 237 718 z m 372 430 l 272 430 l 236 287 l 336 287 z"},",":{"x_min":0,"x_max":602,"ha":602,"o":"m 225 179 l 378 179 l 378 47 l 282 -140 l 177 -140 l 225 47 z"},"n":{"x_min":0,"x_max":602,"ha":602,"o":"m 523 355 l 523 0 l 381 0 l 381 333 q 381 393 364 418 q 347 444 309 444 q 271 444 248 409 q 226 375 226 313 l 226 0 l 84 0 l 84 547 l 226 547 l 226 465 q 241 510 278 535 q 314 560 366 560 q 444 560 483 509 q 523 457 523 355 z"},"h":{"x_min":0,"x_max":602,"ha":602,"o":"m 523 355 l 523 0 l 381 0 l 381 333 q 381 392 364 417 q 347 443 309 443 q 270 443 248 408 q 226 374 226 313 l 226 0 l 84 0 l 84 760 l 226 760 l 226 465 q 241 510 278 535 q 314 560 366 560 q 444 560 483 509 q 523 457 523 355 z"},"z":{"x_min":0,"x_max":602,"ha":602,"o":"m 91 547 l 528 547 l 528 435 l 240 107 l 528 107 l 528 0 l 79 0 l 79 112 l 367 440 l 91 440 z"},"B":{"x_min":0,"x_max":602,"ha":602,"o":"m 200 331 l 200 115 l 296 115 q 365 115 392 139 q 420 162 420 220 q 420 279 391 305 q 362 331 296 331 z m 200 615 l 200 446 l 296 446 q 351 446 374 465 q 397 485 397 530 q 397 575 373 595 q 350 615 296 615 z m 61 730 l 296 730 q 417 730 479 684 q 540 638 540 546 q 540 476 504 436 q 468 396 398 390 q 481 382 524 334 q 566 286 566 200 q 566 95 502 47 q 439 0 296 0 l 61 0 z"},"K":{"x_min":0,"x_max":602,"ha":602,"o":"m 57 729 l 201 729 l 201 441 l 427 729 l 590 729 l 360 442 l 598 0 l 438 0 l 265 328 l 201 247 l 201 0 l 57 0 z"},"R":{"x_min":0,"x_max":602,"ha":602,"o":"m 394 344 q 416 340 431 324 q 447 308 470 262 l 602 0 l 444 0 l 356 184 q 352 192 346 206 q 307 288 255 288 l 209 288 l 209 0 l 65 0 l 65 729 l 273 729 q 414 729 475 679 q 536 629 536 517 q 536 442 500 397 q 463 353 394 344 z m 209 608 l 209 409 l 277 409 q 336 409 362 432 q 387 456 387 509 q 387 562 362 585 q 336 608 277 608 z"},"T":{"x_min":0,"x_max":602,"ha":602,"o":"m 373 0 l 229 0 l 229 603 l 44 603 l 44 729 l 558 729 l 558 603 l 373 603 z"},"P":{"x_min":0,"x_max":602,"ha":602,"o":"m 223 608 l 223 394 l 282 394 q 353 394 382 418 q 410 442 410 501 q 410 560 382 584 q 353 608 282 608 z m 79 729 l 277 729 q 428 729 494 675 q 560 622 560 501 q 560 380 494 327 q 428 273 277 273 l 223 273 l 223 0 l 79 0 z"},"|":{"x_min":0,"x_max":602,"ha":602,"o":"m 356 764 l 356 -236 l 245 -236 l 245 764 z"},"t":{"x_min":0,"x_max":602,"ha":602,"o":"m 337 702 l 337 547 l 524 547 l 524 437 l 337 437 l 337 178 q 337 142 355 126 q 373 110 414 110 l 524 110 l 524 0 l 404 0 q 281 0 237 39 q 194 79 194 185 l 194 437 l 54 437 l 54 547 l 194 547 l 194 702 z"},"M":{"x_min":0,"x_max":602,"ha":602,"o":"m 42 729 l 214 729 l 301 409 l 387 729 l 560 729 l 560 0 l 436 0 l 436 584 l 359 265 l 244 265 l 166 584 l 166 0 l 42 0 z"},"g":{"x_min":0,"x_max":602,"ha":602,"o":"m 392 282 q 392 355 364 400 q 336 444 291 444 q 246 444 219 400 q 191 356 191 282 q 191 208 219 164 q 246 120 291 120 q 336 120 364 164 q 392 208 392 282 z m 535 41 q 535 -90 476 -149 q 417 -207 283 -207 q 238 -207 194 -200 q 150 -194 105 -180 l 105 -49 q 146 -71 188 -82 q 229 -93 274 -93 q 334 -93 363 -64 q 392 -36 392 25 l 392 84 q 371 45 336 26 q 302 7 252 7 q 158 7 103 80 q 48 153 48 279 q 48 409 103 485 q 158 561 251 561 q 298 561 334 539 q 371 517 392 477 l 392 547 l 535 547 z"},"j":{"x_min":0,"x_max":602,"ha":602,"o":"m 415 21 q 415 -102 371 -155 q 327 -207 224 -207 l 70 -207 l 70 -97 l 184 -97 q 232 -97 252 -70 q 272 -43 272 21 l 272 437 l 127 437 l 127 547 l 415 547 z m 415 646 l 272 646 l 272 813 l 415 813 z"},"i":{"x_min":0,"x_max":602,"ha":602,"o":"m 108 547 l 391 547 l 391 110 l 569 110 l 569 0 l 70 0 l 70 110 l 248 110 l 248 437 l 108 437 z m 248 813 l 391 813 l 391 646 l 248 646 z"},"y":{"x_min":0,"x_max":602,"ha":602,"o":"m 347 -59 q 318 -136 278 -172 q 238 -207 180 -207 l 62 -207 l 62 -98 l 120 -98 q 164 -98 185 -83 q 205 -68 226 -14 l 237 15 l 29 547 l 179 547 l 304 192 l 424 547 l 574 547 z"},"@":{"x_min":0,"x_max":602,"ha":602,"o":"m 475 266 q 475 321 450 353 q 425 384 382 384 q 338 384 314 353 q 289 321 289 266 q 289 210 314 179 q 338 148 382 148 q 425 148 450 179 q 475 210 475 266 z m 566 66 l 470 66 l 470 106 q 452 80 427 68 q 401 56 366 56 q 286 56 237 114 q 188 171 188 266 q 188 360 237 418 q 286 475 366 475 q 401 475 427 463 q 454 451 470 428 l 470 448 q 470 515 434 551 q 397 587 330 587 q 229 587 164 498 q 100 408 100 265 q 100 115 174 27 q 249 -62 372 -62 q 411 -62 448 -51 q 484 -39 518 -16 l 563 -102 q 523 -129 477 -142 q 430 -156 377 -156 q 206 -156 104 -42 q 3 72 3 265 q 3 454 94 568 q 186 681 336 681 q 442 681 504 617 q 566 553 566 442 z"},".":{"x_min":0,"x_max":602,"ha":602,"o":"m 219 179 l 382 179 l 382 0 l 219 0 z"},"p":{"x_min":0,"x_max":602,"ha":602,"o":"m 216 77 l 216 -208 l 73 -208 l 73 547 l 216 547 l 216 465 q 238 512 275 536 q 312 560 361 560 q 455 560 506 485 q 558 410 558 273 q 558 134 506 60 q 453 -14 356 -14 q 312 -14 277 9 q 242 31 216 77 z m 415 274 q 415 353 389 398 q 362 443 316 443 q 270 443 243 398 q 216 353 216 274 q 216 195 243 150 q 270 105 316 105 q 362 105 389 150 q 415 195 415 274 z"},"X":{"x_min":0,"x_max":602,"ha":602,"o":"m 589 0 l 440 0 l 301 241 l 162 0 l 13 0 l 227 370 l 19 729 l 168 729 l 301 497 l 434 729 l 583 729 l 376 370 z"},"*":{"x_min":0,"x_max":602,"ha":602,"o":"m 541 594 l 380 510 l 541 425 l 504 356 l 342 446 l 342 278 l 258 278 l 258 446 l 96 356 l 59 425 l 221 510 l 59 594 l 96 663 l 258 574 l 258 742 l 342 742 l 342 574 l 504 663 z"},"Y":{"x_min":0,"x_max":602,"ha":602,"o":"m 4 729 l 159 729 l 301 436 l 443 729 l 598 729 l 373 287 l 373 0 l 229 0 l 229 287 z"},"c":{"x_min":0,"x_max":602,"ha":602,"o":"m 518 28 q 482 7 440 -4 q 399 -14 351 -14 q 225 -14 153 62 q 82 138 82 273 q 82 408 154 485 q 226 561 352 561 q 396 561 437 551 q 478 541 518 519 l 518 388 q 487 415 449 429 q 412 444 372 444 q 302 444 265 399 q 227 355 227 273 q 227 191 265 147 q 302 103 372 103 q 414 103 450 117 q 486 131 518 159 z"},"!":{"x_min":0,"x_max":602,"ha":602,"o":"m 236 138 l 366 138 l 366 0 l 236 0 z m 236 729 l 366 729 l 366 409 l 350 235 l 253 235 l 236 409 z"},"/":{"x_min":0,"x_max":602,"ha":602,"o":"m 439 729 l 547 729 l 163 -93 l 55 -93 z"},"[":{"x_min":0,"x_max":602,"ha":602,"o":"m 206 760 l 454 760 l 454 667 l 336 667 l 336 -39 l 454 -39 l 454 -132 l 206 -132 z"},"6":{"x_min":0,"x_max":602,"ha":602,"o":"m 314 365 q 267 365 242 331 q 218 297 218 233 q 218 169 242 135 q 267 101 314 101 q 361 101 386 135 q 411 169 411 233 q 411 297 386 331 q 361 365 314 365 z m 503 712 l 503 581 q 464 603 429 614 q 394 625 361 625 q 283 625 242 573 q 201 520 199 417 q 222 449 258 465 q 293 481 342 481 q 440 481 494 419 q 548 356 548 242 q 548 120 488 52 q 427 -15 318 -15 q 185 -15 124 74 q 64 164 64 363 q 64 552 138 647 q 211 741 359 741 q 393 741 429 734 q 466 727 503 712 z"},"r":{"x_min":0,"x_max":602,"ha":602,"o":"m 562 396 q 539 417 507 428 q 476 439 438 439 q 393 439 359 423 q 325 407 306 377 q 294 358 290 332 q 285 306 285 252 l 285 0 l 142 0 l 142 547 l 285 547 l 285 462 q 306 509 350 534 q 393 560 451 560 q 480 560 509 553 q 537 546 562 532 z"},"2":{"x_min":0,"x_max":602,"ha":602,"o":"m 212 127 l 519 127 l 519 0 l 56 0 l 56 123 l 134 206 q 273 354 303 388 q 340 430 356 463 q 372 495 372 527 q 372 576 343 602 q 313 629 259 629 q 220 629 172 614 q 124 598 72 569 l 72 703 q 124 722 174 732 q 224 742 270 742 q 386 742 452 688 q 518 634 518 541 q 518 498 504 460 q 489 423 454 377 q 428 344 312 228 q 249 165 212 127 z"},"{":{"x_min":0,"x_max":602,"ha":602,"o":"m 514 -70 l 514 -163 l 441 -163 q 319 -163 278 -127 q 237 -91 237 17 l 237 122 q 237 196 211 224 q 185 252 116 252 l 86 252 l 86 345 l 116 345 q 185 345 211 373 q 237 401 237 475 l 237 580 q 237 688 278 724 q 319 760 441 760 l 514 760 l 514 667 l 454 667 q 403 667 386 646 q 369 626 369 556 l 369 454 q 369 374 345 341 q 321 308 260 299 q 321 289 345 255 q 369 222 369 142 l 369 42 q 369 -28 386 -49 q 403 -70 454 -70 z"},"9":{"x_min":0,"x_max":602,"ha":602,"o":"m 99 10 l 99 141 q 138 119 173 108 q 208 97 241 97 q 319 97 360 149 q 400 201 403 305 q 380 273 344 257 q 309 241 260 241 q 162 241 108 303 q 54 366 54 480 q 54 602 114 669 q 174 736 284 736 q 417 736 478 647 q 538 558 538 359 q 538 170 464 75 q 391 -19 243 -19 q 209 -19 173 -12 q 136 -4 99 10 z m 288 362 q 334 362 359 396 q 384 430 384 494 q 384 558 359 592 q 334 626 288 626 q 241 626 216 592 q 191 558 191 494 q 191 430 216 396 q 241 362 288 362 z"}," ":{"x_min":0,"x_max":602,"ha":602,"o":""},"I":{"x_min":0,"x_max":602,"ha":602,"o":"m 84 602 l 84 729 l 518 729 l 518 602 l 373 602 l 373 127 l 518 127 l 518 0 l 84 0 l 84 127 l 229 127 l 229 602 z"},"H":{"x_min":0,"x_max":602,"ha":602,"o":"m 67 729 l 211 729 l 211 451 l 391 451 l 391 729 l 535 729 l 535 0 l 391 0 l 391 324 l 211 324 l 211 0 l 67 0 z"},"4":{"x_min":0,"x_max":602,"ha":602,"o":"m 339 569 l 155 281 l 339 281 z m 326 729 l 477 729 l 477 281 l 557 281 l 557 157 l 477 157 l 477 0 l 339 0 l 339 157 l 50 157 l 50 297 z"},"~":{"x_min":0,"x_max":602,"ha":602,"o":"m 559 396 l 559 282 q 522 253 488 240 q 453 226 414 226 q 370 226 315 251 q 304 256 299 258 q 261 274 236 280 q 211 286 186 286 q 148 286 114 272 q 79 258 43 227 l 43 339 q 81 369 117 382 q 152 395 193 395 q 219 395 243 390 q 268 384 304 369 q 309 367 320 362 q 376 335 422 335 q 456 335 490 350 q 523 365 559 396 z"},"D":{"x_min":0,"x_max":602,"ha":602,"o":"m 211 599 l 211 130 l 250 130 q 335 130 371 183 q 407 237 407 365 q 407 493 371 546 q 335 599 250 599 z m 67 729 l 221 729 q 400 729 479 644 q 557 559 557 365 q 557 171 479 86 q 400 0 221 0 l 67 0 z"},"^":{"x_min":0,"x_max":602,"ha":602,"o":"m 361 729 l 574 457 l 456 457 l 301 604 l 146 457 l 28 457 l 241 729 z"},"0":{"x_min":0,"x_max":602,"ha":602,"o":"m 240 364 q 240 390 258 407 q 275 425 301 425 q 327 425 344 407 q 362 390 362 364 q 362 338 344 321 q 327 303 301 303 q 275 303 258 321 q 240 338 240 364 z m 301 620 q 251 620 228 559 q 205 498 205 364 q 205 230 228 169 q 251 108 301 108 q 351 108 374 169 q 397 230 397 364 q 397 498 374 559 q 351 620 301 620 z m 60 364 q 60 553 120 648 q 180 742 301 742 q 422 742 482 648 q 542 554 542 364 q 542 174 482 80 q 422 -14 301 -14 q 180 -14 120 80 q 60 175 60 364 z"},"F":{"x_min":0,"x_max":602,"ha":602,"o":"m 543 602 l 233 602 l 233 445 l 515 445 l 515 318 l 233 318 l 233 0 l 89 0 l 89 729 l 543 729 z"},"`":{"x_min":0,"x_max":602,"ha":602,"o":"m 235 800 l 373 616 l 277 616 l 97 800 z"},"k":{"x_min":0,"x_max":602,"ha":602,"o":"m 85 760 l 228 760 l 228 361 l 400 547 l 573 547 l 366 343 l 585 0 l 427 0 l 277 256 l 228 209 l 228 0 l 85 0 z"},"u":{"x_min":0,"x_max":602,"ha":602,"o":"m 78 191 l 78 547 l 221 547 l 221 213 q 221 154 238 128 q 254 103 293 103 q 332 103 353 137 q 375 171 375 233 l 375 547 l 518 547 l 518 0 l 375 0 l 375 81 q 360 36 323 11 q 287 -14 236 -14 q 158 -14 118 38 q 78 89 78 191 z"},"]":{"x_min":0,"x_max":602,"ha":602,"o":"m 396 760 l 396 -132 l 148 -132 l 148 -39 l 266 -39 l 266 667 l 148 667 l 148 760 z"},"U":{"x_min":0,"x_max":602,"ha":602,"o":"m 52 269 l 52 729 l 196 729 l 196 233 q 196 178 224 147 q 251 116 301 116 q 350 116 378 147 q 406 178 406 233 l 406 729 l 550 729 l 550 269 q 550 121 491 53 q 432 -14 301 -14 q 170 -14 111 53 q 52 121 52 269 z"},"o":{"x_min":0,"x_max":602,"ha":602,"o":"m 301 444 q 250 444 220 399 q 191 354 191 273 q 191 192 220 147 q 250 102 301 102 q 353 102 382 147 q 411 192 411 273 q 411 354 382 399 q 353 444 301 444 z m 48 273 q 48 405 116 483 q 185 560 301 560 q 417 560 486 483 q 554 405 554 273 q 554 141 486 63 q 417 -14 301 -14 q 185 -14 116 63 q 48 141 48 273 z"},"N":{"x_min":0,"x_max":602,"ha":602,"o":"m 58 729 l 213 729 l 416 199 l 416 729 l 543 729 l 543 0 l 389 0 l 185 530 l 185 0 l 58 0 z"},"+":{"x_min":0,"x_max":602,"ha":602,"o":"m 359 582 l 359 372 l 569 372 l 569 256 l 359 256 l 359 45 l 243 45 l 243 256 l 32 256 l 32 372 l 243 372 l 243 582 z"},"G":{"x_min":0,"x_max":602,"ha":602,"o":"m 426 132 l 426 271 l 327 271 l 327 392 l 552 392 l 552 58 q 510 22 460 4 q 410 -14 353 -14 q 211 -14 134 84 q 57 183 57 364 q 57 548 135 645 q 213 742 360 742 q 404 742 446 730 q 489 717 526 694 l 526 534 q 496 573 456 593 q 417 613 370 613 q 288 613 248 551 q 207 489 207 364 q 207 242 246 179 q 285 115 360 115 q 382 115 399 119 q 416 124 426 132 z"},"q":{"x_min":0,"x_max":602,"ha":602,"o":"m 187 274 q 187 195 213 150 q 240 105 286 105 q 333 105 359 150 q 386 195 386 274 q 386 353 359 398 q 333 443 286 443 q 240 443 213 398 q 187 353 187 274 z m 386 77 q 360 31 325 9 q 290 -14 246 -14 q 149 -14 96 60 q 44 134 44 273 q 44 410 96 485 q 147 560 241 560 q 291 560 327 536 q 363 512 386 465 l 386 547 l 529 547 l 529 -208 l 386 -208 z"},"d":{"x_min":0,"x_max":602,"ha":602,"o":"m 386 469 l 386 760 l 529 760 l 529 0 l 386 0 l 386 81 q 363 34 327 10 q 291 -14 241 -14 q 147 -14 96 61 q 44 136 44 273 q 44 412 96 486 q 149 560 246 560 q 290 560 325 537 q 360 515 386 469 z m 187 272 q 187 193 213 148 q 240 103 286 103 q 333 103 359 148 q 386 193 386 272 q 386 351 359 396 q 333 441 286 441 q 240 441 213 396 q 187 351 187 272 z"},"1":{"x_min":0,"x_max":602,"ha":602,"o":"m 92 127 l 253 127 l 253 600 l 103 563 l 103 693 l 254 729 l 393 729 l 393 127 l 554 127 l 554 0 l 92 0 z"},"5":{"x_min":0,"x_max":602,"ha":602,"o":"m 94 729 l 490 729 l 490 602 l 211 602 l 211 467 q 229 474 249 477 q 269 480 291 480 q 399 480 467 412 q 534 343 534 234 q 534 119 461 52 q 388 -14 262 -14 q 215 -14 167 -6 q 120 1 70 17 l 70 147 q 110 127 153 117 q 196 107 239 107 q 315 107 354 139 q 394 172 394 234 q 394 291 355 325 q 315 360 250 360 q 211 360 173 350 q 134 341 94 322 z"}}}
